# AST/ASF file generated using VICON BodyLanguage
# -----------------------------------------------
:version 1.10
:name VICON
:units
  mass 1.0
  length 0.45
  angle deg
:documentation
   .ast/.asf automatically generated from VICON data using
   VICON BodyBuilder and BodyLanguage model FoxedUp or BRILLIANT.MOD
:root
   order TX TY TZ RX RY RZ
   axis XYZ
   position 0 0 0  
   orientation 0 0 0 
:bonedata
  begin
     id 1 
     name lhipjoint
     direction 0.625129 -0.738222 0.253461 
     length 2.5165 
     axis 0 0 0  XYZ
  end
  begin
     id 2 
     name lfemur
     direction 0.34202 -0.939693 0  
     length 7.54288  
     axis 0 0 20  XYZ
    dof rx ry rz
    limits (-160.0 20.0)
           (-70.0 70.0)
           (-60.0 70.0)
  end
  begin
     id 3 
     name ltibia
     direction 0.34202 -0.939693 0   
     length 7.71864   
     axis 0 0 20   XYZ
    dof rx
    limits (-10.0 170.0)
  end
  begin
     id 4 
     name lfoot
     direction 0.0772037 -0.212115 0.97419   
     length 2.18429   
     axis -90 7.62852e-016 20   XYZ
    dof rx rz
    limits (-45.0 90.0)
           (-70.0 20.0)
  end
  begin
     id 5 
     name ltoes
     direction 1.53513e-011 -4.21834e-011 1   
     length 1.09718   
     axis -90 7.62852e-016 20   XYZ
    dof rx
    limits (-90.0 20.0)
  end
  begin
     id 6 
     name rhipjoint
     direction -0.621946 -0.740623 0.254285   
     length 2.50835  
     axis 0 0 0  XYZ 
  end
  begin
     id 7 
     name rfemur
     direction -0.34202 -0.939693 0   
     length 7.43366   
     axis 0 0 -20   XYZ
    dof rx ry rz
    limits (-160.0 20.0)
           (-70.0 70.0)
           (-70.0 60.0)
  end
  begin
     id 8 
     name rtibia
     direction -0.34202 -0.939693 0   
     length 7.77122   
     axis 0 0 -20   XYZ
    dof rx
    limits (-10.0 170.0)
 end
 begin
     id 9 
     name rfoot
     direction -0.082694 -0.2272 0.970331   
     length 2.2293  
     axis -90 -7.62852e-016 -20   XYZ
    dof rx rz
    limits (-45.0 90.0)
           (-20.0 70.0)
  end
  begin
     id 10 
     name rtoes
     direction -1.53565e-011 -4.21695e-011 1   
     length 1.1178   
     axis -90 -7.62852e-016 -20   XYZ
    dof rx
    limits (-90.0 20.0)
  end
  begin
     id 11 
     name lowerback
     direction -0.000695208 0.988391 -0.151929   
     length 1.95077   
     axis 0 0 0   XYZ
    dof rx ry rz
    limits (-20.0 45.0)
           (-30.0 30.0)
           (-30.0 30.0)
  end
  begin
     id 12 
     name upperback
     direction -0.00268925 0.999885 -0.0149203   
     length 1.96246   
     axis 0 0 0   XYZ
    dof rx ry rz
    limits (-20.0 45.0)
           (-30.0 30.0)
           (-30.0 30.0)
  end
  begin
     id 13 
     name thorax
     direction -0.000848408 0.998481 0.0550912   
     length 2.00867   
     axis 0 0 0   XYZ
    dof rx ry rz
    limits (-20.0 45.0)
           (-30.0 30.0)
           (-30.0 30.0)
  end
  begin
     id 14 
     name lowerneck
     direction -0.00577709 0.998999 0.0443608   
     length 1.75762   
     axis 0 0 0   XYZ
    dof rx ry rz
    limits (-20.0 45.0)
           (-30.0 30.0)
           (-30.0 30.0)
  end
  begin
     id 15 
     name upperneck
     direction 0.0320945 0.999136 0.0264105   
     length 1.72601   
     axis 0 0 0   XYZ
    dof rx ry rz
    limits (-20.0 45.0)
           (-30.0 30.0)
           (-30.0 30.0)
  end
  begin
     id 16
     name head
     direction 0.0120552 0.999916 0.00480151  
     length 1.79973  
     axis 0 0 0   XYZ
    dof rx ry rz
    limits (-20.0 45.0)
           (-30.0 30.0)
           (-30.0 30.0)
  end
  begin
     id 17 
     name lclavicle
     direction 0.909 0.371533 -0.188897  
     length 3.47956  
     axis 0 0 0   XYZ
    dof ry rz
    limits (-20.0 10.0)
           (0.0 20.0)
  end
  begin
     id 18 
     name lhumerus
     direction 1 -4.48963e-011 -6.48352e-028   
     length 5.52302   
     axis 180 -30 -90   XYZ
    dof rx ry rz
    limits (-60.0 90.0)
           (-90.0 90.0)
           (-90.0 90.0)
  end
  begin
     id 19
     name lradius
     direction 1 -4.48968e-011 -4.78536e-027   
     length 3.58675   
     axis 180 -30 -90   XYZ
    dof rx
    limits (-10.0 170.0)
  end
  begin
     id 20
     name lwrist
     direction 1 -4.48942e-011 -9.9435e-027   
     length 1.79337   
     axis 8.54312e-015 90 90   XYZ
    dof ry
    limits (-180.0 0.0)
 end
  begin
     id 21 
     name lhand
     direction 1 -4.4904e-011 -1.9887e-026   
     length 0.536412   
     axis 1.26896e-014 90 90   XYZ
    dof rx rz
    limits (-90.0 90.0)
           (-45.0 45.0)
  end
  begin
     id 22 
     name lfingers
     direction 1 -4.48893e-011 -3.9774e-026   
     length 0.432469   
     axis 2.53792e-014 90 90   XYZ
    dof rx
    limits (0.0 90.0)
  end
  begin
     id 23
     name lthumb
     direction 0.707107 -6.34934e-011 0.707107   
     length 0.620942   
     axis -90 45 2.85299e-015   XYZ
    dof rx rz
    limits (-45.0 45.0)
           (-45.0 45.0)
  end
  begin
     id 24 
     name rclavicle
     direction -0.89595 0.416672 -0.153813   
     length 3.44099  
     axis 0 0 0   XYZ 
    dof ry rz
    limits (-10.0 20.0)
           (-20.0 0.0)
  end
  begin
     id 25 
     name rhumerus
     direction -1 -4.48952e-011 5.57804e-028  
     length 5.8478   
     axis 180 30 90   XYZ
    dof rx ry rz
    limits (-90.0 60.0)
           (-90.0 90.0)
           (-90.0 90.0)
  end
  begin
     id 26 
     name rradius
     direction -1 -4.48967e-011 -7.93646e-027   
     length 3.62717   
     axis 180 30 90   XYZ
    dof rx
    limits (-10.0 170.0)
  end
  begin
     id 27 
     name rwrist
     direction -1 -4.49008e-011 -9.9435e-027   
     length 1.81359   
     axis 8.54312e-015 -90 -90   XYZ
    dof ry
    limits (-180.0 0.0)
  end
  begin
     id 28
     name rhand
     direction -1 -4.48812e-011 -1.9887e-026   
     length 0.650516   
     axis 1.26896e-014 -90 -90   XYZ
    dof rx rz
    limits (-90.0 90.0)
           (-45.0 45.0)
  end
  begin
     id 29
     name rfingers
     direction -1 -4.49228e-011 -3.9774e-026   
     length 0.524463   
     axis 2.53792e-014 -90 -90   XYZ
    dof rx
    limits (0.0 90.0)
  end
  begin
     id 30
     name rthumb
     direction -0.707107 -6.34912e-011 0.707107   
     length 0.753027   
     axis -90 -45 -2.85299e-015   XYZ
    dof rx rz
    limits (-45.0 45.0)
           (-45.0 45.0)
  end
:hierarchy
  begin
    root lhipjoint rhipjoint lowerback
    lhipjoint lfemur
    lfemur ltibia
    ltibia lfoot
    lfoot ltoes
    rhipjoint rfemur
    rfemur rtibia
    rtibia rfoot
    rfoot rtoes
    lowerback upperback
    upperback thorax
    thorax lowerneck lclavicle rclavicle
    lowerneck upperneck
    upperneck head
    lclavicle lhumerus
    lhumerus lradius
    lradius lwrist
    lwrist lhand lthumb
    lhand lfingers
    rclavicle rhumerus
    rhumerus rradius
    rradius rwrist
    rwrist rhand rthumb
    rhand rfingers
  end

#!OML:ASF F:\VICON\USERDATA\INSTALL\rory3\rory3.ASF
:FULLY-SPECIFIED
:DEGREES
1259
root -10.944 17.7041 41.2383 -184.056 131.624 -187.029
lowerback 10.6495 -0.172981 2.92804
upperback 2.00784 0.126434 -0.135957
thorax -3.86962 0.0425928 -1.80976
lowerneck -0.716916 -14.3376 -0.453351
upperneck 27.0604 -20.8584 5.29697
head 9.33537 -9.18262 0.154176
rclavicle -1.80894e-014 2.78299e-015
rhumerus -25.2362 -8.83988 -77.2176
rradius 30.4964
rwrist 12.6013
rhand -21.2884 15.845
rfingers 7.12502
rthumb 5.09585 -14.0737
lclavicle -1.80894e-014 2.78299e-015
lhumerus -39.2292 18.774 73.059
lradius 23.8988
lwrist 0.575034
lhand -32.1258 22.4602
lfingers 7.12502
lthumb -5.37023 52.3722
rfemur -8.41479 11.5427 25.7265
rtibia 26.649
rfoot -14.6012 -4.34958
rtoes 9.80149
lfemur -21.3942 -6.7427 -13.0181
ltibia 48.6168
lfoot -14.6775 0.7467
ltoes -14.3169
1260
root -10.9435 17.7048 41.3184 -183.995 133.126 -186.936
lowerback 10.8186 -0.197737 2.62898
upperback 2.05116 0.064975 -0.125707
thorax -3.92174 0.0153962 -1.62246
lowerneck -0.296364 -14.0203 0.0191548
upperneck 26.5611 -20.3216 5.02099
head 8.9748 -8.96793 0.111153
rclavicle 7.38485e-014 -8.74653e-015
rhumerus -24.7314 -7.82124 -77.7876
rradius 30.6797
rwrist 12.7952
rhand -21.0003 15.8144
rfingers 7.12502
rthumb 5.37404 -14.0975
lclavicle 7.38485e-014 -8.74653e-015
lhumerus -39.2994 20.3904 71.3847
lradius 24.1425
lwrist -2.52399
lhand -29.5942 14.9054
lfingers 7.12502
lthumb -2.92557 44.8651
rfemur -8.17193 12.0464 26.0082
rtibia 26.4556
rfoot -14.4186 -3.34282
rtoes 10.7109
lfemur -22.0015 -6.55859 -13.3553
ltibia 48.6321
lfoot -14.6286 0.415971
ltoes -15.8331
1261
root -10.9383 17.7033 41.4001 -184.451 134.329 -187.908
lowerback 10.4822 -0.322218 3.00724
upperback 2.20815 -0.0575816 0.177193
thorax -3.57776 -0.0412332 -1.50281
lowerneck -0.0778248 -13.7749 -0.0567855
upperneck 26.0199 -19.9575 5.14444
head 8.75119 -8.83798 0.227242
rclavicle -1.82882e-014 7.15625e-015
rhumerus -23.9607 -6.83594 -78.2005
rradius 30.7427
rwrist 12.9581
rhand -20.9659 15.9786
rfingers 7.12502
rthumb 5.40731 -13.9324
lclavicle -1.82882e-014 7.15625e-015
lhumerus -38.8522 20.8058 71.0027
lradius 24.8505
lwrist -1.66639
lhand -28.852 10.1142
lfingers 7.12502
lthumb -2.20876 40.0825
rfemur -8.23679 12.2518 26.9993
rtibia 26.3744
rfoot -14.2585 -2.22871
rtoes 12.5392
lfemur -22.9907 -6.75091 -12.7575
ltibia 48.5638
lfoot -14.3924 -0.372489
ltoes -15.7591
1262
root -10.9256 17.6981 41.4633 -184.549 135.707 -188.296
lowerback 11.1341 -0.159206 3.97245
upperback 1.81611 0.290279 -0.0164448
thorax -4.32467 0.09858 -2.30043
lowerneck 0.439391 -13.8624 -0.422465
upperneck 25.8718 -20.0897 5.41937
head 8.68403 -8.93544 0.395598
rclavicle -5.10877e-014 -1.59028e-015
rhumerus -24.3675 -7.02714 -78.4138
rradius 30.9445
rwrist 13.0706
rhand -21.0143 16.2183
rfingers 7.12502
rthumb 5.36057 -13.6939
lclavicle -5.10877e-014 -1.59028e-015
lhumerus -38.897 14.3987 73.499
lradius 27.5465
lwrist 5.33842
lhand -29.8936 11.1393
lfingers 7.12502
lthumb -3.21468 41.0948
rfemur -8.23254 12.3775 27.5154
rtibia 26.2979
rfoot -14.3531 -1.05809
rtoes 12.9852
lfemur -23.7903 -7.08267 -12.6055
ltibia 48.378
lfoot -14.0572 -0.883612
ltoes -14.6474
1263
root -10.9065 17.6908 41.5395 -184.088 136.533 -187.624
lowerback 10.9536 -0.311469 3.28625
upperback 2.13177 0.002176 0.0969046
thorax -3.91483 -0.0214106 -1.75234
lowerneck -0.0201464 -13.6087 -0.505625
upperneck 25.7283 -19.6508 4.96156
head 8.64869 -8.77939 0.26905
rclavicle -1.60022e-014 7.95139e-015
rhumerus -23.4621 -6.07155 -78.5739
rradius 30.9989
rwrist 13.0131
rhand -21.0274 16.2036
rfingers 7.12502
rthumb 5.34793 -13.7089
lclavicle -1.60022e-014 7.95139e-015
lhumerus -38.2958 13.6721 74.1231
lradius 28.6004
lwrist 7.18054
lhand -30.6383 10.3872
lfingers 7.12502
lthumb -3.93385 40.3306
rfemur -7.90757 11.792 27.2163
rtibia 26.1828
rfoot -14.6904 -0.227126
rtoes 10.9633
lfemur -24.3486 -7.71746 -13.3784
ltibia 48.0285
lfoot -13.5461 -1.15598
ltoes -14.0608
1264
root -10.896 17.6882 41.6171 -183.635 137.701 -187.187
lowerback 10.803 -0.277405 2.81621
upperback 2.30507 -0.0127268 0.122364
thorax -3.65191 -0.0176786 -1.45855
lowerneck -0.617321 -13.4161 -0.242553
upperneck 25.8965 -19.3169 4.36629
head 8.70475 -8.634 0.0243262
rclavicle -6.48038e-014 1.03368e-014
rhumerus -22.8441 -5.31477 -78.8252
rradius 31.1148
rwrist 13.0111
rhand -21.05 15.9914
rfingers 7.12502
rthumb 5.32603 -13.9216
lclavicle -6.48038e-014 1.03368e-014
lhumerus -37.8374 12.8643 74.4255
lradius 29.8528
lwrist 8.71429
lhand -31.4702 9.79975
lfingers 7.12502
lthumb -4.73715 39.7268
rfemur -7.82583 11.6753 27.1112
rtibia 26.1358
rfoot -14.7589 0.474344
rtoes 9.4261
lfemur -25.0708 -7.99393 -13.8318
ltibia 47.4788
lfoot -12.9097 -1.20525
ltoes -16.0768
1265
root -10.886 17.6865 41.6968 -183.46 139.09 -187.207
lowerback 10.9696 -0.1009 3.1643
upperback 2.18833 0.255551 -0.11979
thorax -3.85021 0.105426 -1.94509
lowerneck -0.590468 -13.4332 -0.169975
upperneck 25.9432 -19.3825 4.46286
head 8.72302 -8.65226 0.0387173
rclavicle -7.13637e-014 -3.18055e-015
rhumerus -22.8192 -5.36552 -79.2588
rradius 31.2521
rwrist 13.1515
rhand -20.7691 16.1134
rfingers 7.12502
rthumb 5.59733 -13.7927
lclavicle -7.13637e-014 -3.18055e-015
lhumerus -37.5748 11.5368 74.1894
lradius 30.9857
lwrist 10.2835
lhand -32.7286 12.5232
lfingers 7.12502
lthumb -5.95221 42.4196
rfemur -7.85336 11.7383 27.3524
rtibia 26.1777
rfoot -14.7236 1.42523
rtoes 8.82155
lfemur -25.7358 -8.1485 -13.8269
ltibia 46.6922
lfoot -12.3727 -1.23502
ltoes -18.9017
1266
root -10.8622 17.6883 41.767 -183.091 140.342 -186.832
lowerback 10.9737 -0.0705199 3.09964
upperback 2.24242 0.279932 -0.285112
thorax -3.79402 0.118931 -2.08425
lowerneck -0.557513 -13.3701 -0.213722
upperneck 25.7039 -19.2889 4.48673
head 8.63643 -8.62977 0.0700705
rclavicle -4.28381e-014 7.95139e-016
rhumerus -22.3592 -4.78236 -79.6732
rradius 31.3671
rwrist 13.0604
rhand -20.5588 16.1215
rfingers 7.12502
rthumb 5.80028 -13.7791
lclavicle -4.28381e-014 7.95139e-016
lhumerus -37.0038 11.8944 73.5119
lradius 31.3698
lwrist 10.9375
lhand -32.8001 13.0271
lfingers 7.12502
lthumb -6.02122 42.9215
rfemur -7.83008 11.0968 27.1311
rtibia 26.2244
rfoot -14.9125 3.03834
rtoes 8.65469
lfemur -26.1724 -8.52406 -14.1869
ltibia 45.6769
lfoot -11.8636 -1.41264
ltoes -20.614
1267
root -10.8252 17.6984 41.8273 -182.527 141.305 -186.04
lowerback 11.1227 -0.121501 3.01587
upperback 2.23305 0.191415 -0.641218
thorax -3.89023 0.0726653 -2.39731
lowerneck -0.205675 -13.3164 -0.369552
upperneck 25.2411 -19.2392 4.82792
head 8.4646 -8.62855 0.24353
rclavicle 9.43233e-014 7.95139e-015
rhumerus -22.2135 -4.05046 -80.1481
rradius 31.5663
rwrist 12.819
rhand -21.2573 16.2615
rfingers 7.12502
rthumb 5.12593 -13.6565
lclavicle 9.43233e-014 7.95139e-015
lhumerus -36.4042 12.2434 72.7165
lradius 31.4731
lwrist 11.4305
lhand -31.9377 9.66448
lfingers 7.12502
lthumb -5.18858 39.581
rfemur -7.74979 10.3003 26.4737
rtibia 26.3591
rfoot -15.3007 4.58468
rtoes 8.77246
lfemur -26.4465 -9.24805 -14.9444
ltibia 44.4194
lfoot -11.1731 -1.79148
ltoes -21.0736
1268
root -10.8238 17.7115 41.9356 -182.383 142.697 -185.616
lowerback 11.064 0.0227962 2.09057
upperback 2.44935 0.273866 -0.645899
thorax -3.63205 0.129378 -1.88971
lowerneck -0.0558673 -13.2341 -0.717572
upperneck 25.3479 -19.1865 5.13457
head 8.54178 -8.60848 0.396587
rclavicle -7.7526e-014 1.03368e-014
rhumerus -21.827 -3.22927 -80.5829
rradius 31.6974
rwrist 12.4843
rhand -21.641 16.3952
rfingers 7.12502
rthumb 4.75546 -13.5314
lclavicle -7.7526e-014 1.03368e-014
lhumerus -35.7145 12.4887 72.2492
lradius 31.8385
lwrist 12.4053
lhand -32.7506 10.2829
lfingers 7.12502
lthumb -5.97347 40.1787
rfemur -7.36814 11.501 26.544
rtibia 26.4703
rfoot -15.3647 4.59681
rtoes 9.65085
lfemur -26.4838 -9.65485 -15.0628
ltibia 43.0418
lfoot -10.3827 -2.41975
ltoes -19.1144
1269
root -10.81 17.7301 42.0225 -182.115 144.108 -185.43
lowerback 10.819 0.162863 1.76584
upperback 2.5846 0.416365 -0.675995
thorax -3.35159 0.206929 -1.75437
lowerneck 0.0814012 -13.1947 -0.942871
upperneck 25.0874 -19.144 5.32695
head 8.46798 -8.61302 0.508231
rclavicle 1.86858e-014 7.95139e-015
rhumerus -21.5017 -2.93681 -80.8242
rradius 31.9276
rwrist 12.7436
rhand -21.0814 16.3215
rfingers 7.12502
rthumb 5.2958 -13.5923
lclavicle 1.86858e-014 7.95139e-015
lhumerus -34.9013 12.039 72.257
lradius 32.5176
lwrist 15.0007
lhand -35.3605 14.7414
lfingers 7.12502
lthumb -8.49273 44.5507
rfemur -7.28027 11.5533 26.5921
rtibia 26.4677
rfoot -15.4754 5.72327
rtoes 9.06998
lfemur -26.8681 -10.1929 -14.943
ltibia 41.6307
lfoot -9.75412 -2.43407
ltoes -17.19
1270
root -10.7959 17.7401 42.1053 -182.173 145.61 -186.017
lowerback 10.8036 0.294604 2.14504
upperback 2.44477 0.635389 -0.551125
thorax -3.47622 0.308818 -1.86858
lowerneck 0.586672 -13.1897 -0.994256
upperneck 24.4671 -19.0612 5.2932
head 8.16285 -8.63378 0.570985
rclavicle -1.39149e-015 1.11319e-014
rhumerus -21.6134 -2.52244 -81.0656
rradius 32.2611
rwrist 12.9701
rhand -20.9578 16.2884
rfingers 7.12502
rthumb 5.41508 -13.6224
lclavicle -1.39149e-015 1.11319e-014
lhumerus -34.4675 12.2565 71.4803
lradius 32.2985
lwrist 13.7301
lhand -34.6217 12.5406
lfingers 7.12502
lthumb -7.77963 42.3775
rfemur -7.10733 11.9953 27.2903
rtibia 26.2895
rfoot -15.6788 6.51892
rtoes 7.94884
lfemur -27.4656 -10.4233 -14.1257
ltibia 40.2987
lfoot -9.47494 -2.12794
ltoes -19.262
